<svg width="50" height="60" viewBox="0 0 50 60" fill="none" xmlns="http://www.w3.org/2000/svg">
<path d="M25.0279 0C25.6307 0 26.2088 0.243133 26.635 0.675913C27.0612 1.10869 27.3007 1.69567 27.3007 2.30771V52.122L46.1484 32.9841C46.577 32.5637 47.1511 32.3311 47.747 32.3364C48.3429 32.3417 48.913 32.5844 49.3343 33.0122C49.7557 33.4401 49.9947 34.0189 49.9999 34.624C50.0051 35.2291 49.776 35.812 49.362 36.2472L26.6347 59.3243C26.2085 59.757 25.6306 60 25.0279 60C24.4253 60 23.8473 59.757 23.4211 59.3243L0.693837 36.2472C0.476769 36.0343 0.303627 35.7797 0.184516 35.4981C0.0654042 35.2166 0.00270812 34.9138 8.58115e-05 34.6074C-0.0025365 34.3009 0.0549669 33.9971 0.169242 33.7135C0.283516 33.4299 0.452273 33.1722 0.665666 32.9555C0.879058 32.7388 1.13281 32.5675 1.41212 32.4514C1.69143 32.3354 1.9907 32.277 2.29248 32.2797C2.59425 32.2824 2.89247 32.346 3.16976 32.467C3.44704 32.5879 3.69782 32.7637 3.90747 32.9841L22.7552 52.122V2.30771C22.7552 1.69567 22.9946 1.10869 23.4209 0.675913C23.8471 0.243133 24.4252 0 25.0279 0Z" fill="white"/>
</svg>
